<svg width="20" height="18" viewBox="0 0 20 18" fill="none" xmlns="http://www.w3.org/2000/svg">
<path d="M8.125 8.5C8.125 8.40054 8.16451 8.30516 8.23483 8.23483C8.30516 8.16451 8.40054 8.125 8.5 8.125H11.5C11.5995 8.125 11.6948 8.16451 11.7652 8.23483C11.8355 8.30516 11.875 8.40054 11.875 8.5C11.875 8.59946 11.8355 8.69484 11.7652 8.76517C11.6948 8.83549 11.5995 8.875 11.5 8.875H8.5C8.40054 8.875 8.30516 8.83549 8.23483 8.76517C8.16451 8.69484 8.125 8.59946 8.125 8.5ZM19.375 4.75V16.75C19.375 17.0484 19.2565 17.3345 19.0455 17.5455C18.8345 17.7565 18.5484 17.875 18.25 17.875H1.75C1.45163 17.875 1.16548 17.7565 0.954505 17.5455C0.743526 17.3345 0.625 17.0484 0.625 16.75V4.75C0.625 4.45163 0.743526 4.16548 0.954505 3.9545C1.16548 3.74353 1.45163 3.625 1.75 3.625H5.875V2.5C5.875 2.00272 6.07254 1.52581 6.42417 1.17417C6.77581 0.822544 7.25272 0.625 7.75 0.625H12.25C12.7473 0.625 13.2242 0.822544 13.5758 1.17417C13.9275 1.52581 14.125 2.00272 14.125 2.5V3.625H18.25C18.5484 3.625 18.8345 3.74353 19.0455 3.9545C19.2565 4.16548 19.375 4.45163 19.375 4.75ZM6.625 3.625H13.375V2.5C13.375 2.20163 13.2565 1.91548 13.0455 1.7045C12.8345 1.49353 12.5484 1.375 12.25 1.375H7.75C7.45163 1.375 7.16548 1.49353 6.9545 1.7045C6.74353 1.91548 6.625 2.20163 6.625 2.5V3.625ZM1.375 4.75V8.875C4.00973 10.3516 6.9797 11.1264 10 11.125C13.0203 11.1264 15.9903 10.3516 18.625 8.875V4.75C18.625 4.65054 18.5855 4.55516 18.5152 4.48483C18.4448 4.41451 18.3495 4.375 18.25 4.375H1.75C1.65054 4.375 1.55516 4.41451 1.48484 4.48483C1.41451 4.55516 1.375 4.65054 1.375 4.75ZM18.625 16.75V9.72812C15.9689 11.1386 13.0073 11.8757 10 11.875C6.99263 11.876 4.031 11.1388 1.375 9.72812V16.75C1.375 16.8495 1.41451 16.9448 1.48484 17.0152C1.55516 17.0855 1.65054 17.125 1.75 17.125H18.25C18.3495 17.125 18.4448 17.0855 18.5152 17.0152C18.5855 16.9448 18.625 16.8495 18.625 16.75Z" fill="black"/>
</svg>
