<svg width="23" height="23" viewBox="0 0 23 23" fill="none" xmlns="http://www.w3.org/2000/svg">
<g opacity="0.7">
<path d="M19.1665 6.70825H3.83317C2.77462 6.70825 1.9165 7.56637 1.9165 8.62492V18.2083C1.9165 19.2668 2.77462 20.1249 3.83317 20.1249H19.1665C20.225 20.1249 21.0832 19.2668 21.0832 18.2083V8.62492C21.0832 7.56637 20.225 6.70825 19.1665 6.70825Z" stroke="white" stroke-width="2" stroke-linecap="round" stroke-linejoin="round"/>
<path d="M15.3332 20.125V4.79167C15.3332 4.28334 15.1312 3.79582 14.7718 3.43638C14.4123 3.07693 13.9248 2.875 13.4165 2.875H9.58317C9.07484 2.875 8.58733 3.07693 8.22788 3.43638C7.86844 3.79582 7.6665 4.28334 7.6665 4.79167V20.125" stroke="white" stroke-width="2" stroke-linecap="round" stroke-linejoin="round"/>
</g>
</svg>
