<svg width="23" height="23" viewBox="0 0 23 23" fill="none" xmlns="http://www.w3.org/2000/svg">
<path fill-rule="evenodd" clip-rule="evenodd" d="M10.9142 1.20466C11.2587 0.936662 11.7412 0.936662 12.0858 1.20466L20.6736 7.88405C20.906 8.06483 21.042 8.34279 21.042 8.63725V19.1334C21.042 19.8926 20.7404 20.6208 20.2035 21.1576C19.6667 21.6944 18.9386 21.996 18.1794 21.996H4.8206C4.0614 21.996 3.33328 21.6944 2.79644 21.1576C2.2596 20.6208 1.95801 19.8926 1.95801 19.1334V8.63725C1.95801 8.34279 2.09396 8.06483 2.32639 7.88405L10.9142 1.20466ZM3.8664 9.10393V19.1334C3.8664 19.3865 3.96694 19.6292 4.14588 19.8082C4.32483 19.9871 4.56753 20.0876 4.8206 20.0876H18.1794C18.4324 20.0876 18.6752 19.9871 18.8541 19.8082C19.0331 19.6292 19.1336 19.3865 19.1336 19.1334V9.10393L11.5 3.1667L3.8664 9.10393Z" fill="white"/>
<path fill-rule="evenodd" clip-rule="evenodd" d="M7.68359 11.4999C7.68359 10.9729 8.1108 10.5457 8.63779 10.5457H14.363C14.89 10.5457 15.3172 10.9729 15.3172 11.4999V21.0418C15.3172 21.5688 14.89 21.996 14.363 21.996C13.836 21.996 13.4088 21.5688 13.4088 21.0418V12.4541H9.59199V21.0418C9.59199 21.5688 9.16478 21.996 8.63779 21.996C8.1108 21.996 7.68359 21.5688 7.68359 21.0418V11.4999Z" fill="white"/>
</svg>
