<svg width="23" height="23" viewBox="0 0 23 23" fill="none" xmlns="http://www.w3.org/2000/svg">
<g opacity="0.7">
<path d="M5.22306 13.2825L5.86559 13.6693L5.86727 13.6665L5.22306 13.2825ZM4.12098 15.1129L3.47845 14.726L3.47834 14.7262L4.12098 15.1129ZM5.15598 17.9208L4.91553 18.6312L4.91831 18.6321L5.15598 17.9208ZM17.8731 17.9208L17.6377 17.2087L17.6354 17.2094L17.8731 17.9208ZM18.9081 15.1129L19.5512 14.727L19.5506 14.726L18.9081 15.1129ZM17.806 13.2825L17.1562 13.6573L17.1635 13.6693L17.806 13.2825ZM13.2922 3.06663L13.0831 3.78689C13.3576 3.86657 13.6534 3.78336 13.8461 3.57231C14.0388 3.36126 14.0948 3.05905 13.9905 2.79298L13.2922 3.06663ZM12.3722 2.87496L12.2792 3.61918L12.282 3.61951L12.3722 2.87496ZM9.74639 3.06663L9.0481 2.79298C8.94381 3.05909 8.99985 3.36135 9.19259 3.5724C9.38534 3.78345 9.68129 3.8666 9.95575 3.78682L9.74639 3.06663ZM11.5193 2.03871C7.93301 2.03871 5.01931 4.95242 5.01931 8.53871H6.51931C6.51931 5.78084 8.76144 3.53871 11.5193 3.53871V2.03871ZM5.01931 8.53871V11.3083H6.51931V8.53871H5.01931ZM5.01931 11.3083C5.01931 11.5102 4.97345 11.8082 4.88492 12.1271C4.79646 12.4458 4.6821 12.7252 4.57885 12.8984L5.86727 13.6665C6.0611 13.3414 6.21987 12.926 6.33027 12.5283C6.44059 12.1309 6.51931 11.691 6.51931 11.3083H5.01931ZM4.58054 12.8956L3.47845 14.726L4.7635 15.4997L5.86559 13.6693L4.58054 12.8956ZM3.47834 14.7262C3.03209 15.4679 2.93818 16.3016 3.2128 17.0432C3.48709 17.784 4.10021 18.3553 4.91553 18.6312L5.39643 17.2104C4.96592 17.0647 4.72132 16.7974 4.61947 16.5223C4.51794 16.2482 4.52945 15.8887 4.76362 15.4996L3.47834 14.7262ZM4.91831 18.6321C9.20298 20.0637 13.8261 20.0637 18.1107 18.6321L17.6354 17.2094C13.6592 18.5379 9.36981 18.5379 5.39364 17.2094L4.91831 18.6321ZM18.1085 18.6329C19.7271 18.0978 20.4294 16.1908 19.5512 14.727L18.2649 15.4988C18.6517 16.1433 18.3382 16.9771 17.6377 17.2087L18.1085 18.6329ZM19.5506 14.726L18.4485 12.8956L17.1635 13.6693L18.2655 15.4997L19.5506 14.726ZM18.4556 12.9077C18.354 12.7315 18.2408 12.449 18.1531 12.1294C18.0652 11.8089 18.0193 11.5105 18.0193 11.3083H16.5193C16.5193 11.6907 16.598 12.1302 16.7065 12.5261C16.8153 12.9228 16.9705 13.3351 17.1563 13.6573L18.4556 12.9077ZM18.0193 11.3083V8.53871H16.5193V11.3083H18.0193ZM18.0193 8.53871C18.0193 4.962 15.096 2.03871 11.5193 2.03871V3.53871C14.2676 3.53871 16.5193 5.79043 16.5193 8.53871H18.0193ZM13.5013 2.34637C13.1717 2.25066 12.825 2.17435 12.4625 2.13041L12.282 3.61951C12.552 3.65224 12.8186 3.7101 13.0831 3.78689L13.5013 2.34637ZM12.4653 2.13076C11.4497 2.00381 10.4648 2.07676 9.53704 2.34644L9.95575 3.78682C10.6764 3.57734 11.4548 3.51612 12.2792 3.61917L12.4653 2.13076ZM10.4447 3.34029C10.6132 2.9104 11.0315 2.60913 11.5193 2.60913V1.10913C10.3972 1.10913 9.43547 1.80453 9.0481 2.79298L10.4447 3.34029ZM11.5193 2.60913C12.0072 2.60913 12.4255 2.9104 12.5939 3.34029L13.9905 2.79298C13.6032 1.80453 12.6415 1.10913 11.5193 1.10913V2.60913ZM13.6443 18.2658C13.6443 19.4328 12.6863 20.3908 11.5193 20.3908V21.8908C13.5148 21.8908 15.1443 20.2613 15.1443 18.2658H13.6443ZM11.5193 20.3908C10.941 20.3908 10.401 20.1502 10.018 19.7671L8.95731 20.8278C9.60929 21.4798 10.526 21.8908 11.5193 21.8908V20.3908ZM10.018 19.7671C9.63495 19.3841 9.39431 18.8441 9.39431 18.2658H7.89431C7.89431 19.2591 8.30534 20.1758 8.95731 20.8278L10.018 19.7671Z" fill="white"/>
</g>
</svg>
