<svg width="24" height="21" viewBox="0 0 24 21" fill="none" xmlns="http://www.w3.org/2000/svg">
<path d="M23.4261 6.669L12.1761 0.669C12.1219 0.64011 12.0614 0.625 11.9999 0.625C11.9384 0.625 11.8779 0.64011 11.8236 0.669L0.573633 6.669C0.513635 6.70098 0.463458 6.74866 0.42847 6.80695C0.393482 6.86524 0.375 6.93195 0.375 6.99994C0.375 7.06792 0.393482 7.13463 0.42847 7.19292C0.463458 7.25122 0.513635 7.2989 0.573633 7.33088L3.37488 8.82525V13.5896C3.37274 13.8658 3.47293 14.133 3.65613 14.3396C4.84207 15.6606 7.49988 17.8768 11.9999 17.8768C13.9686 17.8768 15.5811 17.4531 16.8749 16.8652V20.4999C16.8749 20.5994 16.9144 20.6948 16.9847 20.7651C17.055 20.8354 17.1504 20.8749 17.2499 20.8749C17.3493 20.8749 17.4447 20.8354 17.515 20.7651C17.5854 20.6948 17.6249 20.5994 17.6249 20.4999V16.4856C18.6442 15.9257 19.5631 15.1998 20.3436 14.3377C20.5267 14.131 20.6269 13.8639 20.6249 13.5877V8.82525L23.4261 7.33088C23.4861 7.2989 23.5363 7.25122 23.5713 7.19292C23.6063 7.13463 23.6248 7.06792 23.6248 6.99994C23.6248 6.93195 23.6063 6.86524 23.5713 6.80695C23.5363 6.74866 23.4861 6.70098 23.4261 6.669ZM11.9999 17.1249C7.79707 17.1249 5.3202 15.0624 4.21863 13.8362C4.15795 13.7684 4.12454 13.6806 4.12488 13.5896V9.22463L11.8236 13.3309C11.8779 13.3598 11.9384 13.3749 11.9999 13.3749C12.0614 13.3749 12.1219 13.3598 12.1761 13.3309L16.8749 10.8249V16.0309C15.6168 16.6562 14.0052 17.1249 11.9999 17.1249ZM19.8749 13.5896C19.8748 13.6808 19.8414 13.7688 19.7811 13.8371C19.1524 14.5321 18.426 15.1321 17.6249 15.6184V10.4246L19.8749 9.22463V13.5896ZM17.5696 9.60431C17.5346 9.54733 17.4851 9.50073 17.4261 9.46931L12.1761 6.669C12.0886 6.62427 11.9869 6.61573 11.8931 6.64522C11.7993 6.67472 11.7208 6.73988 11.6746 6.82668C11.6283 6.91348 11.6181 7.01497 11.6459 7.10928C11.6738 7.20359 11.7376 7.28317 11.8236 7.33088L16.828 9.99994L11.9999 12.5753L1.54676 6.99994L11.9999 1.42462L22.453 6.99994L17.5696 9.60431Z" fill="black"/>
</svg>
