<svg width="24" height="24" viewBox="0 0 24 24" fill="none" xmlns="http://www.w3.org/2000/svg">
<path d="M12.5 7C12.5 6.72386 12.2761 6.5 12 6.5C11.7239 6.5 11.5 6.72386 11.5 7H12.5ZM12 13H11.5C11.5 13.1326 11.5527 13.2598 11.6464 13.3536L12 13ZM14.1464 15.8536C14.3417 16.0488 14.6583 16.0488 14.8536 15.8536C15.0488 15.6583 15.0488 15.3417 14.8536 15.1464L14.1464 15.8536ZM22.5 12C22.5 17.799 17.799 22.5 12 22.5V23.5C18.3513 23.5 23.5 18.3513 23.5 12H22.5ZM12 22.5C6.20101 22.5 1.5 17.799 1.5 12H0.5C0.5 18.3513 5.64873 23.5 12 23.5V22.5ZM1.5 12C1.5 6.20101 6.20101 1.5 12 1.5V0.5C5.64873 0.5 0.5 5.64873 0.5 12H1.5ZM12 1.5C17.799 1.5 22.5 6.20101 22.5 12H23.5C23.5 5.64873 18.3513 0.5 12 0.5V1.5ZM11.5 7V13H12.5V7H11.5ZM11.6464 13.3536L14.1464 15.8536L14.8536 15.1464L12.3536 12.6464L11.6464 13.3536Z" fill="#2B2D2B"/>
</svg>
